<mxfile host="65bd71144e">
    <diagram id="BIj_T0dZl9ThOb1oUWiy" name="Page-1">
        <mxGraphModel dx="1185" dy="898" grid="1" gridSize="10" guides="1" tooltips="1" connect="1" arrows="1" fold="1" page="1" pageScale="1" pageWidth="827" pageHeight="1169" math="0" shadow="0">
            <root>
                <mxCell id="0"/>
                <mxCell id="1" parent="0"/>
                <mxCell id="2" value="VPC" style="points=[[0,0],[0.25,0],[0.5,0],[0.75,0],[1,0],[1,0.25],[1,0.5],[1,0.75],[1,1],[0.75,1],[0.5,1],[0.25,1],[0,1],[0,0.75],[0,0.5],[0,0.25]];outlineConnect=0;gradientColor=none;html=1;whiteSpace=wrap;fontSize=17;fontStyle=0;container=1;pointerEvents=0;collapsible=0;recursiveResize=0;shape=mxgraph.aws4.group;grIcon=mxgraph.aws4.group_vpc;strokeColor=#248814;fillColor=none;verticalAlign=top;align=left;spacingLeft=30;fontColor=#4D4D4D;dashed=0;strokeWidth=2;" parent="1" vertex="1">
                    <mxGeometry x="49" y="40" width="730" height="410" as="geometry"/>
                </mxCell>
                <mxCell id="3" value="ECS Cluster" style="points=[[0,0],[0.25,0],[0.5,0],[0.75,0],[1,0],[1,0.25],[1,0.5],[1,0.75],[1,1],[0.75,1],[0.5,1],[0.25,1],[0,1],[0,0.75],[0,0.5],[0,0.25]];outlineConnect=0;gradientColor=none;html=1;whiteSpace=wrap;fontSize=17;fontStyle=0;container=1;pointerEvents=0;collapsible=0;recursiveResize=0;shape=mxgraph.aws4.group;grIcon=mxgraph.aws4.group_elastic_beanstalk;strokeColor=#D86613;fillColor=none;verticalAlign=top;align=left;spacingLeft=30;fontColor=#D86613;dashed=0;strokeWidth=2;" parent="2" vertex="1">
                    <mxGeometry x="32" y="50" width="665" height="210" as="geometry"/>
                </mxCell>
                <mxCell id="36" value="BackendAPI&lt;br&gt;IP: 10.0.1.1&lt;br&gt;Version: 1.2&lt;br&gt;Status: Failed" style="rounded=1;whiteSpace=wrap;html=1;fontSize=16;strokeWidth=2;align=center;labelPosition=center;verticalLabelPosition=middle;verticalAlign=middle;" parent="3" vertex="1">
                    <mxGeometry x="35" y="50" width="145" height="100" as="geometry"/>
                </mxCell>
                <mxCell id="40" value="BackendAPI&lt;br&gt;IP: 10.0.1.4&lt;br&gt;Version: 1.1&lt;br&gt;Status: Stopped" style="rounded=1;whiteSpace=wrap;html=1;fontSize=16;strokeWidth=2;align=center;labelPosition=center;verticalLabelPosition=middle;verticalAlign=middle;" parent="3" vertex="1">
                    <mxGeometry x="260" y="50" width="145" height="100" as="geometry"/>
                </mxCell>
                <mxCell id="41" value="BackendAPI&lt;br&gt;IP: 10.0.1.8&lt;br&gt;Version: 1.2&lt;br&gt;Status: Healthy" style="rounded=1;whiteSpace=wrap;html=1;fontSize=16;strokeWidth=2;align=center;labelPosition=center;verticalLabelPosition=middle;verticalAlign=middle;" parent="3" vertex="1">
                    <mxGeometry x="489" y="50" width="145" height="100" as="geometry"/>
                </mxCell>
                <mxCell id="47" value="X" style="text;html=1;align=center;verticalAlign=middle;resizable=0;points=[];autosize=1;strokeColor=none;fillColor=none;fontFamily=Lucida Console;fontStyle=1;fontSize=26;" parent="3" vertex="1">
                    <mxGeometry x="180" y="170" width="30" height="40" as="geometry"/>
                </mxCell>
                <mxCell id="50" value="X" style="text;html=1;align=center;verticalAlign=middle;resizable=0;points=[];autosize=1;strokeColor=none;fillColor=none;fontFamily=Lucida Console;fontStyle=1;fontSize=26;" parent="3" vertex="1">
                    <mxGeometry x="317" y="170" width="30" height="40" as="geometry"/>
                </mxCell>
                <mxCell id="42" style="edgeStyle=orthogonalEdgeStyle;html=1;exitX=0.25;exitY=0;exitDx=0;exitDy=0;entryX=0.5;entryY=1;entryDx=0;entryDy=0;strokeWidth=2;" parent="2" source="39" target="36" edge="1">
                    <mxGeometry relative="1" as="geometry"/>
                </mxCell>
                <mxCell id="44" style="edgeStyle=orthogonalEdgeStyle;html=1;exitX=0.5;exitY=0;exitDx=0;exitDy=0;entryX=0.5;entryY=1;entryDx=0;entryDy=0;strokeWidth=2;" parent="2" source="39" target="40" edge="1">
                    <mxGeometry relative="1" as="geometry"/>
                </mxCell>
                <mxCell id="45" style="edgeStyle=orthogonalEdgeStyle;html=1;exitX=0.75;exitY=0;exitDx=0;exitDy=0;entryX=0.5;entryY=1;entryDx=0;entryDy=0;strokeWidth=2;" parent="2" source="39" target="41" edge="1">
                    <mxGeometry relative="1" as="geometry"/>
                </mxCell>
                <mxCell id="39" value="Backend&lt;br&gt;API&amp;nbsp;&lt;br&gt;Load Balancer" style="rounded=1;whiteSpace=wrap;html=1;fontSize=16;strokeWidth=2;align=center;labelPosition=center;verticalLabelPosition=middle;verticalAlign=middle;" parent="2" vertex="1">
                    <mxGeometry x="292" y="280" width="145" height="80" as="geometry"/>
                </mxCell>
                <mxCell id="46" value="backend.internal.scubic" style="text;html=1;align=center;verticalAlign=middle;resizable=0;points=[];autosize=1;strokeColor=none;fillColor=none;fontFamily=Lucida Console;fontStyle=1" parent="2" vertex="1">
                    <mxGeometry x="270" y="370" width="190" height="20" as="geometry"/>
                </mxCell>
            </root>
        </mxGraphModel>
    </diagram>
</mxfile>